<?xml version="1.0" encoding="utf-8"?>
<!DOCTYPE svg PUBLIC "-//W3C//DTD SVG 1.1//EN" "http://www.w3.org/Graphics/SVG/1.1/DTD/svg11.dtd">
<svg version="1.1" id="Layer_1" xmlns="http://www.w3.org/2000/svg" xmlns:xlink="http://www.w3.org/1999/xlink" x="0px" y="0px"
	 width="24px" height="24px" viewBox="0 0 24 24" enable-background="new 0 0 24 24" xml:space="preserve">
<path fill="#000000" d="M23.949,2.09c-0.249-0.206-0.575-0.276-0.896-0.184L1.059,9.58c-0.332,0.103-0.561,0.371-0.615,0.715
	c-0.053,0.344,0.097,0.681,0.382,0.874l5.09,3.335l2.021,6.47c0.103,0.331,0.374,0.573,0.713,0.615
	c0.03,0.004,0.06,0.006,0.091,0.006c0.312,0,0.601-0.151,0.78-0.404l2.935-4.243l4.978,3.016
	c0.295,0.179,0.664,0.181,0.962,0.006c0.299-0.174,0.482-0.49,0.482-0.836V2.908C24.011,2.542,23.796,2.297,23.949,2.09z
	 M18.299,14.063l-3.816-2.31l-2.416,3.497l0.003,0.002l0.003-0.003L7.318,14.38l3.362-2.201L8.739,5.4l12.963-3.513L18.299,14.063z"/>
</svg>
